solid small ball sculpture
facet normal 0.438036991347517 0.89895694791865 0.0
outer loop
vertex 5.53143885217537 2.45891263318638 2.7500000000001
vertex 6.12121242333021 2.15700361342133 9.02389274415327e-014
vertex 5.53143885217537 2.45891263318638 9.02389274415327e-014
endloop
endfacet
facet normal 0.455672448593167 0.890147526870186 0.0
outer loop
vertex 6.12121242333021 2.15700361342133 9.02389274415327e-014
vertex 5.53143885217537 2.45891263318638 2.7500000000001
vertex 6.12121242333021 2.15700361342133 2.7500000000001
endloop
endfacet
facet normal 0.402262312850412 0.915524457161161 0.0
outer loop
vertex 4.9302232552059 2.73733987217158 2.7500000000001
vertex 5.53143885217537 2.45891263318638 9.02389274415327e-014
vertex 4.9302232552059 2.73733987217158 9.02389274415327e-014
endloop
endfacet
facet normal 0.438036991347517 0.89895694791865 0.0
outer loop
vertex 5.53143885217537 2.45891263318638 9.02389274415327e-014
vertex 4.9302232552059 2.73733987217158 2.7500000000001
vertex 5.53143885217537 2.45891263318638 2.7500000000001
endloop
endfacet
facet normal 0.365862394024266 0.930668957599228 0.0
outer loop
vertex 4.31850010782685 2.99185256813955 2.7500000000001
vertex 4.9302232552059 2.73733987217158 9.02389274415327e-014
vertex 4.31850010782685 2.99185256813955 9.02389274415327e-014
endloop
endfacet
facet normal 0.402262312850412 0.915524457161161 0.0
outer loop
vertex 4.9302232552059 2.73733987217158 9.02389274415327e-014
vertex 4.31850010782685 2.99185256813955 2.7500000000001
vertex 4.9302232552059 2.73733987217158 2.7500000000001
endloop
endfacet
facet normal 0.328893811626291 0.944366909984636 0.0
outer loop
vertex 3.69722021743364 3.2220551294659 2.7500000000001
vertex 4.31850010782685 2.99185256813955 9.02389274415327e-014
vertex 3.69722021743364 3.2220551294659 9.02389274415327e-014
endloop
endfacet
facet normal 0.365862394024266 0.930668957599228 0.0
outer loop
vertex 4.31850010782685 2.99185256813955 9.02389274415327e-014
vertex 3.69722021743364 3.2220551294659 2.7500000000001
vertex 4.31850010782685 2.99185256813955 2.7500000000001
endloop
endfacet
facet normal 0.2914140262932 0.956597023453234 0.0
outer loop
vertex 3.06734924556278 3.42758975001121 2.7500000000001
vertex 3.69722021743364 3.2220551294659 9.02389274415327e-014
vertex 3.06734924556278 3.42758975001121 9.02389274415327e-014
endloop
endfacet
facet normal 0.328893811626291 0.944366909984636 0.0
outer loop
vertex 3.69722021743364 3.2220551294659 9.02389274415327e-014
vertex 3.06734924556278 3.42758975001121 2.7500000000001
vertex 3.69722021743364 3.2220551294659 2.7500000000001
endloop
endfacet
facet normal 0.253481293229517 0.967340288617554 0.0
outer loop
vertex 2.42986620695457 3.60813696526266 2.7500000000001
vertex 3.06734924556278 3.42758975001121 9.02389274415327e-014
vertex 2.42986620695457 3.60813696526266 9.02389274415327e-014
endloop
endfacet
facet normal 0.2914140262932 0.956597023453234 0.0
outer loop
vertex 3.06734924556278 3.42758975001121 9.02389274415327e-014
vertex 2.42986620695457 3.60813696526266 2.7500000000001
vertex 3.06734924556278 3.42758975001121 2.7500000000001
endloop
endfacet
facet normal 0.215154571661011 0.976580007113276 0.0
outer loop
vertex 1.78576194786055 3.76341614888099 2.7500000000001
vertex 2.42986620695457 3.60813696526266 9.02389274415327e-014
vertex 1.78576194786055 3.76341614888099 9.02389274415327e-014
endloop
endfacet
facet normal 0.253481293229517 0.967340288617554 0.0
outer loop
vertex 2.42986620695457 3.60813696526266 9.02389274415327e-014
vertex 1.78576194786055 3.76341614888099 2.7500000000001
vertex 2.42986620695457 3.60813696526266 2.7500000000001
endloop
endfacet
facet normal -0.32889381162629 0.944366909984636 0.0
outer loop
vertex -7.35730759964137 3.2220551294659 2.7500000000001
vertex -6.7274366277705 3.42758975001119 9.02389274415327e-014
vertex -7.35730759964137 3.2220551294659 9.02389274415327e-014
endloop
endfacet
facet normal -0.291414026293184 0.956597023453238 0.0
outer loop
vertex -6.7274366277705 3.42758975001119 9.02389274415327e-014
vertex -7.35730759964137 3.2220551294659 2.7500000000001
vertex -6.7274366277705 3.42758975001119 2.7500000000001
endloop
endfacet
facet normal -0.365862394024281 0.930668957599222 0.0
outer loop
vertex -7.97858749003458 2.99185256813953 2.7500000000001
vertex -7.35730759964137 3.2220551294659 9.02389274415327e-014
vertex -7.97858749003458 2.99185256813953 9.02389274415327e-014
endloop
endfacet
facet normal -0.32889381162629 0.944366909984636 0.0
outer loop
vertex -7.35730759964137 3.2220551294659 9.02389274415327e-014
vertex -7.97858749003458 2.99185256813953 2.7500000000001
vertex -7.35730759964137 3.2220551294659 2.7500000000001
endloop
endfacet
facet normal -0.402262312850412 0.915524457161161 0.0
outer loop
vertex -8.59031063741363 2.73733987217155 2.7500000000001
vertex -7.97858749003458 2.99185256813953 9.02389274415327e-014
vertex -8.59031063741363 2.73733987217155 9.02389274415327e-014
endloop
endfacet
facet normal -0.365862394024281 0.930668957599222 0.0
outer loop
vertex -7.97858749003458 2.99185256813953 9.02389274415327e-014
vertex -8.59031063741363 2.73733987217155 2.7500000000001
vertex -7.97858749003458 2.99185256813953 2.7500000000001
endloop
endfacet
facet normal -0.438036991347503 0.898956947918657 0.0
outer loop
vertex -9.19152623438309 2.45891263318636 2.7500000000001
vertex -8.59031063741363 2.73733987217155 9.02389274415327e-014
vertex -9.19152623438309 2.45891263318636 9.02389274415327e-014
endloop
endfacet
facet normal -0.402262312850412 0.915524457161161 0.0
outer loop
vertex -8.59031063741363 2.73733987217155 9.02389274415327e-014
vertex -9.19152623438309 2.45891263318636 2.7500000000001
vertex -8.59031063741363 2.73733987217155 2.7500000000001
endloop
endfacet
facet normal -0.45567244859314 0.890147526870199 0.0
outer loop
vertex -9.78129980553793 2.15700361342133 2.7500000000001
vertex -9.19152623438309 2.45891263318636 9.02389274415327e-014
vertex -9.78129980553793 2.15700361342133 9.02389274415327e-014
endloop
endfacet
facet normal -0.438036991347503 0.898956947918657 0.0
outer loop
vertex -9.19152623438309 2.45891263318636 9.02389274415327e-014
vertex -9.78129980553793 2.15700361342133 2.7500000000001
vertex -9.19152623438309 2.45891263318636 2.7500000000001
endloop
endfacet
facet normal -1.0 0.0 0.0
outer loop
vertex -9.78129980553793 2.15700361342133 2.7500000000001
vertex -9.78129980553793 -5.54299638657866 9.02389274415327e-014
vertex -9.78129980553793 -5.54299638657866 2.7500000000001
endloop
endfacet
facet normal -1.0 0.0 0.0
outer loop
vertex -9.78129980553793 -5.54299638657866 9.02389274415327e-014
vertex -9.78129980553793 2.15700361342133 2.7500000000001
vertex -9.78129980553793 2.15700361342133 9.02389274415327e-014
endloop
endfacet
facet normal 0.0 -1.0 0.0
outer loop
vertex -7.28129980553792 -5.54299638657866 2.7500000000001
vertex -9.78129980553793 -5.54299638657866 9.02389274415327e-014
vertex -7.28129980553792 -5.54299638657866 9.02389274415327e-014
endloop
endfacet
facet normal 0.0 -1.0 0.0
outer loop
vertex -9.78129980553793 -5.54299638657866 9.02389274415327e-014
vertex -7.28129980553792 -5.54299638657866 2.7500000000001
vertex -9.78129980553793 -5.54299638657866 2.7500000000001
endloop
endfacet
facet normal 0.0 -1.0 0.0
outer loop
vertex 3.62121242333019 -1.84299638657867 2.7500000000001
vertex -4.7812998055379 -1.84299638657867 9.02389274415327e-014
vertex 3.62121242333019 -1.84299638657867 9.02389274415327e-014
endloop
endfacet
facet normal 0.0 -1.0 0.0
outer loop
vertex -4.7812998055379 -1.84299638657867 9.02389274415327e-014
vertex 3.62121242333019 -1.84299638657867 2.7500000000001
vertex -4.7812998055379 -1.84299638657867 2.7500000000001
endloop
endfacet
facet normal -1.0 0.0 0.0
outer loop
vertex 3.62121242333019 -1.84299638657867 2.7500000000001
vertex 3.62121242333019 -3.84299638657866 9.02389274415327e-014
vertex 3.62121242333019 -3.84299638657866 2.7500000000001
endloop
endfacet
facet normal -1.0 0.0 0.0
outer loop
vertex 3.62121242333019 -3.84299638657866 9.02389274415327e-014
vertex 3.62121242333019 -1.84299638657867 2.7500000000001
vertex 3.62121242333019 -1.84299638657867 9.02389274415327e-014
endloop
endfacet
facet normal 0.0 -1.0 0.0
outer loop
vertex 6.12121242333021 -3.84299638657866 2.7500000000001
vertex 3.62121242333019 -3.84299638657866 9.02389274415327e-014
vertex 6.12121242333021 -3.84299638657866 9.02389274415327e-014
endloop
endfacet
facet normal 0.0 -1.0 0.0
outer loop
vertex 3.62121242333019 -3.84299638657866 9.02389274415327e-014
vertex 6.12121242333021 -3.84299638657866 2.7500000000001
vertex 3.62121242333019 -3.84299638657866 2.7500000000001
endloop
endfacet
facet normal 1.0 0.0 0.0
outer loop
vertex 6.12121242333021 2.15700361342133 9.02389274415327e-014
vertex 6.12121242333021 -3.84299638657866 2.7500000000001
vertex 6.12121242333021 -3.84299638657866 9.02389274415327e-014
endloop
endfacet
facet normal 1.0 0.0 0.0
outer loop
vertex 6.12121242333021 -3.84299638657866 2.7500000000001
vertex 6.12121242333021 2.15700361342133 9.02389274415327e-014
vertex 6.12121242333021 2.15700361342133 2.7500000000001
endloop
endfacet
facet normal 0.0 0.0 1.0
outer loop
vertex 6.12121242333021 -3.84299638657866 2.7500000000001
vertex 3.62121242333019 -1.84299638657867 2.7500000000001
vertex 3.62121242333019 -3.84299638657866 2.7500000000001
endloop
endfacet
facet normal 0.0 0.0 1.0
outer loop
vertex 3.62121242333019 -1.84299638657867 2.7500000000001
vertex 6.12121242333021 -3.84299638657866 2.7500000000001
vertex 3.69722021743364 3.2220551294659 2.7500000000001
endloop
endfacet
facet normal 0.0 0.0 1.0
outer loop
vertex 3.69722021743364 3.2220551294659 2.7500000000001
vertex 6.12121242333021 -3.84299638657866 2.7500000000001
vertex 4.31850010782685 2.99185256813955 2.7500000000001
endloop
endfacet
facet normal 0.0 0.0 1.0
outer loop
vertex 4.31850010782685 2.99185256813955 2.7500000000001
vertex 6.12121242333021 -3.84299638657866 2.7500000000001
vertex 4.9302232552059 2.73733987217158 2.7500000000001
endloop
endfacet
facet normal 0.0 0.0 1.0
outer loop
vertex 4.9302232552059 2.73733987217158 2.7500000000001
vertex 6.12121242333021 -3.84299638657866 2.7500000000001
vertex 5.53143885217537 2.45891263318638 2.7500000000001
endloop
endfacet
facet normal 0.0 0.0 1.0
outer loop
vertex 5.53143885217537 2.45891263318638 2.7500000000001
vertex 6.12121242333021 -3.84299638657866 2.7500000000001
vertex 6.12121242333021 2.15700361342133 2.7500000000001
endloop
endfacet
facet normal 0.0 0.0 1.0
outer loop
vertex -7.28129980553792 -5.54299638657866 2.7500000000001
vertex -9.78129980553793 2.15700361342133 2.7500000000001
vertex -9.78129980553793 -5.54299638657866 2.7500000000001
endloop
endfacet
facet normal 0.0 0.0 1.0
outer loop
vertex -9.78129980553793 2.15700361342133 2.7500000000001
vertex -7.28129980553792 -5.54299638657866 2.7500000000001
vertex -9.19152623438309 2.45891263318636 2.7500000000001
endloop
endfacet
facet normal 0.0 0.0 1.0
outer loop
vertex -9.19152623438309 2.45891263318636 2.7500000000001
vertex -7.28129980553792 -5.54299638657866 2.7500000000001
vertex -8.59031063741363 2.73733987217155 2.7500000000001
endloop
endfacet
facet normal 0.0 0.0 1.0
outer loop
vertex -8.59031063741363 2.73733987217155 2.7500000000001
vertex -7.28129980553792 -5.54299638657866 2.7500000000001
vertex -7.97858749003458 2.99185256813953 2.7500000000001
endloop
endfacet
facet normal 0.0 0.0 1.0
outer loop
vertex -7.97858749003458 2.99185256813953 2.7500000000001
vertex -7.28129980553792 -5.54299638657866 2.7500000000001
vertex -7.35730759964137 3.2220551294659 2.7500000000001
endloop
endfacet
facet normal 0.0 0.0 1.0
outer loop
vertex -7.35730759964137 3.2220551294659 2.7500000000001
vertex -7.28129980553792 -5.54299638657866 2.7500000000001
vertex -7.28129980553792 -3.84299638657866 2.7500000000001
endloop
endfacet
facet normal 0.0 0.0 1.0
outer loop
vertex -7.35730759964137 3.2220551294659 2.7500000000001
vertex -7.28129980553792 -3.84299638657866 2.7500000000001
vertex -6.7274366277705 3.42758975001119 2.7500000000001
endloop
endfacet
facet normal 0.0 0.0 1.0
outer loop
vertex -6.7274366277705 3.42758975001119 2.7500000000001
vertex -7.28129980553792 -3.84299638657866 2.7500000000001
vertex -4.7812998055379 -3.84299638657866 2.7500000000001
endloop
endfacet
facet normal 0.0 0.0 1.0
outer loop
vertex -6.7274366277705 3.42758975001119 2.7500000000001
vertex -4.7812998055379 -3.84299638657866 2.7500000000001
vertex -6.08995358916229 3.60813696526264 2.7500000000001
endloop
endfacet
facet normal 0.0 0.0 1.0
outer loop
vertex -6.08995358916229 3.60813696526264 2.7500000000001
vertex -4.7812998055379 -3.84299638657866 2.7500000000001
vertex -5.44584933006827 3.76341614888099 2.7500000000001
endloop
endfacet
facet normal 0.0 0.0 1.0
outer loop
vertex -5.44584933006827 3.76341614888099 2.7500000000001
vertex -4.7812998055379 -3.84299638657866 2.7500000000001
vertex -4.79612498816914 3.89318594888082 2.7500000000001
endloop
endfacet
facet normal 0.0 0.0 1.0
outer loop
vertex -4.79612498816914 3.89318594888082 2.7500000000001
vertex -4.7812998055379 -3.84299638657866 2.7500000000001
vertex -4.7812998055379 -1.84299638657867 2.7500000000001
endloop
endfacet
facet normal 0.0 0.0 1.0
outer loop
vertex -4.79612498816914 3.89318594888082 2.7500000000001
vertex -4.7812998055379 -1.84299638657867 2.7500000000001
vertex -4.14179043649642 3.99724466276634 2.7500000000001
endloop
endfacet
facet normal 0.0 0.0 1.0
outer loop
vertex -4.14179043649642 3.99724466276634 2.7500000000001
vertex -4.7812998055379 -1.84299638657867 2.7500000000001
vertex 3.62121242333019 -1.84299638657867 2.7500000000001
endloop
endfacet
facet normal 0.0 0.0 1.0
outer loop
vertex -4.14179043649642 3.99724466276634 2.7500000000001
vertex 3.62121242333019 -1.84299638657867 2.7500000000001
vertex -3.48386271377671 4.07543055103966 2.7500000000001
endloop
endfacet
facet normal 0.0 0.0 1.0
outer loop
vertex -3.48386271377671 4.07543055103966 2.7500000000001
vertex 3.62121242333019 -1.84299638657867 2.7500000000001
vertex -2.8233644436382 4.12762208859399 2.7500000000001
endloop
endfacet
facet normal 0.0 0.0 1.0
outer loop
vertex -2.8233644436382 4.12762208859399 2.7500000000001
vertex 3.62121242333019 -1.84299638657867 2.7500000000001
vertex -2.16132224513668 4.15373815360145 2.7500000000001
endloop
endfacet
facet normal 0.0 0.0 1.0
outer loop
vertex -2.16132224513668 4.15373815360145 2.7500000000001
vertex 3.62121242333019 -1.84299638657867 2.7500000000001
vertex -1.49876513707105 4.15373815360145 2.7500000000001
endloop
endfacet
facet normal 0.0 0.0 1.0
outer loop
vertex -1.49876513707105 4.15373815360145 2.7500000000001
vertex 3.62121242333019 -1.84299638657867 2.7500000000001
vertex -0.836722938569526 4.12762208859399 2.7500000000001
endloop
endfacet
facet normal 0.0 0.0 1.0
outer loop
vertex -0.836722938569526 4.12762208859399 2.7500000000001
vertex 3.62121242333019 -1.84299638657867 2.7500000000001
vertex -0.176224668431014 4.07543055103966 2.7500000000001
endloop
endfacet
facet normal 0.0 0.0 1.0
outer loop
vertex -0.176224668431014 4.07543055103966 2.7500000000001
vertex 3.62121242333019 -1.84299638657867 2.7500000000001
vertex 0.481703054288698 3.99724466276634 2.7500000000001
endloop
endfacet
facet normal 0.0 0.0 1.0
outer loop
vertex 0.481703054288698 3.99724466276634 2.7500000000001
vertex 3.62121242333019 -1.84299638657867 2.7500000000001
vertex 1.13603760596141 3.89318594888082 2.7500000000001
endloop
endfacet
facet normal 0.0 0.0 1.0
outer loop
vertex 1.13603760596141 3.89318594888082 2.7500000000001
vertex 3.62121242333019 -1.84299638657867 2.7500000000001
vertex 1.78576194786055 3.76341614888099 2.7500000000001
endloop
endfacet
facet normal 0.0 0.0 1.0
outer loop
vertex 1.78576194786055 3.76341614888099 2.7500000000001
vertex 3.62121242333019 -1.84299638657867 2.7500000000001
vertex 2.42986620695457 3.60813696526266 2.7500000000001
endloop
endfacet
facet normal 0.0 0.0 1.0
outer loop
vertex 2.42986620695457 3.60813696526266 2.7500000000001
vertex 3.62121242333019 -1.84299638657867 2.7500000000001
vertex 3.06734924556278 3.42758975001121 2.7500000000001
endloop
endfacet
facet normal 0.0 0.0 1.0
outer loop
vertex 3.06734924556278 3.42758975001121 2.7500000000001
vertex 3.62121242333019 -1.84299638657867 2.7500000000001
vertex 3.69722021743364 3.2220551294659 2.7500000000001
endloop
endfacet
facet normal 0.176493433193671 0.984301817553697 0.0
outer loop
vertex 1.13603760596141 3.89318594888082 2.7500000000001
vertex 1.78576194786055 3.76341614888099 9.02389274415327e-014
vertex 1.13603760596141 3.89318594888082 9.02389274415327e-014
endloop
endfacet
facet normal 0.215154571661011 0.976580007113276 0.0
outer loop
vertex 1.78576194786055 3.76341614888099 9.02389274415327e-014
vertex 1.13603760596141 3.89318594888082 2.7500000000001
vertex 1.78576194786055 3.76341614888099 2.7500000000001
endloop
endfacet
facet normal 0.137557969220977 0.990493717851759 0.0
outer loop
vertex 0.481703054288698 3.99724466276634 2.7500000000001
vertex 1.13603760596141 3.89318594888082 9.02389274415327e-014
vertex 0.481703054288698 3.99724466276634 9.02389274415327e-014
endloop
endfacet
facet normal 0.176493433193671 0.984301817553697 0.0
outer loop
vertex 1.13603760596141 3.89318594888082 9.02389274415327e-014
vertex 0.481703054288698 3.99724466276634 2.7500000000001
vertex 1.13603760596141 3.89318594888082 2.7500000000001
endloop
endfacet
facet normal 0.0984086975233362 0.995146083875006 0.0
outer loop
vertex -0.176224668431014 4.07543055103966 2.7500000000001
vertex 0.481703054288698 3.99724466276634 9.02389274415327e-014
vertex -0.176224668431014 4.07543055103966 9.02389274415327e-014
endloop
endfacet
facet normal 0.137557969220977 0.990493717851759 0.0
outer loop
vertex 0.481703054288698 3.99724466276634 9.02389274415327e-014
vertex -0.176224668431014 4.07543055103966 2.7500000000001
vertex 0.481703054288698 3.99724466276634 2.7500000000001
endloop
endfacet
facet normal 0.0591064682046122 0.998251684404478 2.46566942718791e-032
outer loop
vertex -0.836722938569526 4.12762208859399 2.7500000000001
vertex -0.176224668431014 4.07543055103966 9.02389274415327e-014
vertex -0.836722938569526 4.12762208859399 9.02389274415327e-014
endloop
endfacet
facet normal 0.0984086975233362 0.995146083875006 0.0
outer loop
vertex -0.176224668431014 4.07543055103966 9.02389274415327e-014
vertex -0.836722938569526 4.12762208859399 2.7500000000001
vertex -0.176224668431014 4.07543055103966 2.7500000000001
endloop
endfacet
facet normal 0.0197123691122431 0.999805692374265 2.46566942718791e-032
outer loop
vertex -1.49876513707105 4.15373815360145 2.7500000000001
vertex -0.836722938569526 4.12762208859399 9.02389274415327e-014
vertex -1.49876513707105 4.15373815360145 9.02389274415327e-014
endloop
endfacet
facet normal 0.0591064682046122 0.998251684404478 2.46566942718791e-032
outer loop
vertex -0.836722938569526 4.12762208859399 9.02389274415327e-014
vertex -1.49876513707105 4.15373815360145 2.7500000000001
vertex -0.836722938569526 4.12762208859399 2.7500000000001
endloop
endfacet
facet normal -0.0197123691122431 0.999805692374265 2.46566942718791e-032
outer loop
vertex -2.16132224513668 4.15373815360145 2.7500000000001
vertex -1.49876513707105 4.15373815360145 9.02389274415327e-014
vertex -2.16132224513668 4.15373815360145 9.02389274415327e-014
endloop
endfacet
facet normal 0.0197123691122431 0.999805692374265 2.46566942718791e-032
outer loop
vertex -1.49876513707105 4.15373815360145 9.02389274415327e-014
vertex -2.16132224513668 4.15373815360145 2.7500000000001
vertex -1.49876513707105 4.15373815360145 2.7500000000001
endloop
endfacet
facet normal -0.0591064682046122 0.998251684404478 2.46566942718791e-032
outer loop
vertex -2.8233644436382 4.12762208859399 2.7500000000001
vertex -2.16132224513668 4.15373815360145 9.02389274415327e-014
vertex -2.8233644436382 4.12762208859399 9.02389274415327e-014
endloop
endfacet
facet normal -0.0197123691122431 0.999805692374265 2.46566942718791e-032
outer loop
vertex -2.16132224513668 4.15373815360145 9.02389274415327e-014
vertex -2.8233644436382 4.12762208859399 2.7500000000001
vertex -2.16132224513668 4.15373815360145 2.7500000000001
endloop
endfacet
facet normal -0.0984086975233362 0.995146083875006 0.0
outer loop
vertex -3.48386271377671 4.07543055103966 2.7500000000001
vertex -2.8233644436382 4.12762208859399 9.02389274415327e-014
vertex -3.48386271377671 4.07543055103966 9.02389274415327e-014
endloop
endfacet
facet normal -0.0591064682046122 0.998251684404478 2.46566942718791e-032
outer loop
vertex -2.8233644436382 4.12762208859399 9.02389274415327e-014
vertex -3.48386271377671 4.07543055103966 2.7500000000001
vertex -2.8233644436382 4.12762208859399 2.7500000000001
endloop
endfacet
facet normal -0.137557969220977 0.990493717851759 0.0
outer loop
vertex -4.14179043649642 3.99724466276634 2.7500000000001
vertex -3.48386271377671 4.07543055103966 9.02389274415327e-014
vertex -4.14179043649642 3.99724466276634 9.02389274415327e-014
endloop
endfacet
facet normal -0.0984086975233362 0.995146083875006 0.0
outer loop
vertex -3.48386271377671 4.07543055103966 9.02389274415327e-014
vertex -4.14179043649642 3.99724466276634 2.7500000000001
vertex -3.48386271377671 4.07543055103966 2.7500000000001
endloop
endfacet
facet normal 0.0 0.0 -1.0
outer loop
vertex -4.14179043649642 3.99724466276634 9.02389274415327e-014
vertex -4.7812998055379 -1.84299638657867 9.02389274415327e-014
vertex -4.79612498816914 3.89318594888082 9.02389274415327e-014
endloop
endfacet
facet normal 0.0 0.0 -1.0
outer loop
vertex -4.7812998055379 -1.84299638657867 9.02389274415327e-014
vertex -4.14179043649642 3.99724466276634 9.02389274415327e-014
vertex 3.62121242333019 -1.84299638657867 9.02389274415327e-014
endloop
endfacet
facet normal 0.0 0.0 -1.0
outer loop
vertex 3.62121242333019 -1.84299638657867 9.02389274415327e-014
vertex -4.14179043649642 3.99724466276634 9.02389274415327e-014
vertex -3.48386271377671 4.07543055103966 9.02389274415327e-014
endloop
endfacet
facet normal 0.0 0.0 -1.0
outer loop
vertex 3.62121242333019 -1.84299638657867 9.02389274415327e-014
vertex -3.48386271377671 4.07543055103966 9.02389274415327e-014
vertex -2.8233644436382 4.12762208859399 9.02389274415327e-014
endloop
endfacet
facet normal 0.0 0.0 -1.0
outer loop
vertex 3.62121242333019 -1.84299638657867 9.02389274415327e-014
vertex -2.8233644436382 4.12762208859399 9.02389274415327e-014
vertex -2.16132224513668 4.15373815360145 9.02389274415327e-014
endloop
endfacet
facet normal 0.0 0.0 -1.0
outer loop
vertex 3.62121242333019 -1.84299638657867 9.02389274415327e-014
vertex -2.16132224513668 4.15373815360145 9.02389274415327e-014
vertex -1.49876513707105 4.15373815360145 9.02389274415327e-014
endloop
endfacet
facet normal 0.0 0.0 -1.0
outer loop
vertex 3.62121242333019 -1.84299638657867 9.02389274415327e-014
vertex -1.49876513707105 4.15373815360145 9.02389274415327e-014
vertex -0.836722938569526 4.12762208859399 9.02389274415327e-014
endloop
endfacet
facet normal 0.0 0.0 -1.0
outer loop
vertex 3.62121242333019 -1.84299638657867 9.02389274415327e-014
vertex -0.836722938569526 4.12762208859399 9.02389274415327e-014
vertex -0.176224668431014 4.07543055103966 9.02389274415327e-014
endloop
endfacet
facet normal 0.0 0.0 -1.0
outer loop
vertex 3.62121242333019 -1.84299638657867 9.02389274415327e-014
vertex -0.176224668431014 4.07543055103966 9.02389274415327e-014
vertex 0.481703054288698 3.99724466276634 9.02389274415327e-014
endloop
endfacet
facet normal 0.0 0.0 -1.0
outer loop
vertex 3.62121242333019 -1.84299638657867 9.02389274415327e-014
vertex 0.481703054288698 3.99724466276634 9.02389274415327e-014
vertex 1.13603760596141 3.89318594888082 9.02389274415327e-014
endloop
endfacet
facet normal 0.0 0.0 -1.0
outer loop
vertex 3.62121242333019 -1.84299638657867 9.02389274415327e-014
vertex 1.13603760596141 3.89318594888082 9.02389274415327e-014
vertex 1.78576194786055 3.76341614888099 9.02389274415327e-014
endloop
endfacet
facet normal 0.0 0.0 -1.0
outer loop
vertex 3.62121242333019 -1.84299638657867 9.02389274415327e-014
vertex 1.78576194786055 3.76341614888099 9.02389274415327e-014
vertex 2.42986620695457 3.60813696526266 9.02389274415327e-014
endloop
endfacet
facet normal 0.0 0.0 -1.0
outer loop
vertex 3.62121242333019 -1.84299638657867 9.02389274415327e-014
vertex 2.42986620695457 3.60813696526266 9.02389274415327e-014
vertex 3.06734924556278 3.42758975001121 9.02389274415327e-014
endloop
endfacet
facet normal 0.0 0.0 -1.0
outer loop
vertex 3.62121242333019 -1.84299638657867 9.02389274415327e-014
vertex 3.06734924556278 3.42758975001121 9.02389274415327e-014
vertex 3.69722021743364 3.2220551294659 9.02389274415327e-014
endloop
endfacet
facet normal 0.0 0.0 -1.0
outer loop
vertex 3.62121242333019 -1.84299638657867 9.02389274415327e-014
vertex 3.69722021743364 3.2220551294659 9.02389274415327e-014
vertex 3.62121242333019 -3.84299638657866 9.02389274415327e-014
endloop
endfacet
facet normal 0.0 0.0 -1.0
outer loop
vertex 3.62121242333019 -3.84299638657866 9.02389274415327e-014
vertex 3.69722021743364 3.2220551294659 9.02389274415327e-014
vertex 6.12121242333021 -3.84299638657866 9.02389274415327e-014
endloop
endfacet
facet normal 0.0 0.0 -1.0
outer loop
vertex 6.12121242333021 -3.84299638657866 9.02389274415327e-014
vertex 3.69722021743364 3.2220551294659 9.02389274415327e-014
vertex 4.31850010782685 2.99185256813955 9.02389274415327e-014
endloop
endfacet
facet normal 0.0 0.0 -1.0
outer loop
vertex 6.12121242333021 -3.84299638657866 9.02389274415327e-014
vertex 4.31850010782685 2.99185256813955 9.02389274415327e-014
vertex 4.9302232552059 2.73733987217158 9.02389274415327e-014
endloop
endfacet
facet normal 0.0 0.0 -1.0
outer loop
vertex 6.12121242333021 -3.84299638657866 9.02389274415327e-014
vertex 4.9302232552059 2.73733987217158 9.02389274415327e-014
vertex 5.53143885217537 2.45891263318638 9.02389274415327e-014
endloop
endfacet
facet normal 0.0 0.0 -1.0
outer loop
vertex 6.12121242333021 -3.84299638657866 9.02389274415327e-014
vertex 5.53143885217537 2.45891263318638 9.02389274415327e-014
vertex 6.12121242333021 2.15700361342133 9.02389274415327e-014
endloop
endfacet
facet normal 0.0 0.0 -1.0
outer loop
vertex -6.7274366277705 3.42758975001119 9.02389274415327e-014
vertex -7.28129980553792 -3.84299638657866 9.02389274415327e-014
vertex -7.35730759964137 3.2220551294659 9.02389274415327e-014
endloop
endfacet
facet normal 0.0 0.0 -1.0
outer loop
vertex -7.28129980553792 -3.84299638657866 9.02389274415327e-014
vertex -6.7274366277705 3.42758975001119 9.02389274415327e-014
vertex -4.7812998055379 -3.84299638657866 9.02389274415327e-014
endloop
endfacet
facet normal 0.0 0.0 -1.0
outer loop
vertex -4.7812998055379 -3.84299638657866 9.02389274415327e-014
vertex -6.7274366277705 3.42758975001119 9.02389274415327e-014
vertex -6.08995358916229 3.60813696526264 9.02389274415327e-014
endloop
endfacet
facet normal 0.0 0.0 -1.0
outer loop
vertex -4.7812998055379 -3.84299638657866 9.02389274415327e-014
vertex -6.08995358916229 3.60813696526264 9.02389274415327e-014
vertex -5.44584933006827 3.76341614888099 9.02389274415327e-014
endloop
endfacet
facet normal 0.0 0.0 -1.0
outer loop
vertex -4.7812998055379 -3.84299638657866 9.02389274415327e-014
vertex -5.44584933006827 3.76341614888099 9.02389274415327e-014
vertex -4.79612498816914 3.89318594888082 9.02389274415327e-014
endloop
endfacet
facet normal 0.0 0.0 -1.0
outer loop
vertex -4.7812998055379 -3.84299638657866 9.02389274415327e-014
vertex -4.79612498816914 3.89318594888082 9.02389274415327e-014
vertex -4.7812998055379 -1.84299638657867 9.02389274415327e-014
endloop
endfacet
facet normal 0.0 0.0 -1.0
outer loop
vertex -9.19152623438309 2.45891263318636 9.02389274415327e-014
vertex -9.78129980553793 -5.54299638657866 9.02389274415327e-014
vertex -9.78129980553793 2.15700361342133 9.02389274415327e-014
endloop
endfacet
facet normal 0.0 0.0 -1.0
outer loop
vertex -9.78129980553793 -5.54299638657866 9.02389274415327e-014
vertex -9.19152623438309 2.45891263318636 9.02389274415327e-014
vertex -7.28129980553792 -5.54299638657866 9.02389274415327e-014
endloop
endfacet
facet normal 0.0 0.0 -1.0
outer loop
vertex -7.28129980553792 -5.54299638657866 9.02389274415327e-014
vertex -9.19152623438309 2.45891263318636 9.02389274415327e-014
vertex -8.59031063741363 2.73733987217155 9.02389274415327e-014
endloop
endfacet
facet normal 0.0 0.0 -1.0
outer loop
vertex -7.28129980553792 -5.54299638657866 9.02389274415327e-014
vertex -8.59031063741363 2.73733987217155 9.02389274415327e-014
vertex -7.97858749003458 2.99185256813953 9.02389274415327e-014
endloop
endfacet
facet normal 0.0 0.0 -1.0
outer loop
vertex -7.28129980553792 -5.54299638657866 9.02389274415327e-014
vertex -7.97858749003458 2.99185256813953 9.02389274415327e-014
vertex -7.35730759964137 3.2220551294659 9.02389274415327e-014
endloop
endfacet
facet normal 0.0 0.0 -1.0
outer loop
vertex -7.28129980553792 -5.54299638657866 9.02389274415327e-014
vertex -7.35730759964137 3.2220551294659 9.02389274415327e-014
vertex -7.28129980553792 -3.84299638657866 9.02389274415327e-014
endloop
endfacet
facet normal -0.176493433193671 0.984301817553697 0.0
outer loop
vertex -4.79612498816914 3.89318594888082 2.7500000000001
vertex -4.14179043649642 3.99724466276634 9.02389274415327e-014
vertex -4.79612498816914 3.89318594888082 9.02389274415327e-014
endloop
endfacet
facet normal -0.137557969220977 0.990493717851759 0.0
outer loop
vertex -4.14179043649642 3.99724466276634 9.02389274415327e-014
vertex -4.79612498816914 3.89318594888082 2.7500000000001
vertex -4.14179043649642 3.99724466276634 2.7500000000001
endloop
endfacet
facet normal -0.215154571661027 0.976580007113273 0.0
outer loop
vertex -5.44584933006827 3.76341614888099 2.7500000000001
vertex -4.79612498816914 3.89318594888082 9.02389274415327e-014
vertex -5.44584933006827 3.76341614888099 9.02389274415327e-014
endloop
endfacet
facet normal -0.176493433193671 0.984301817553697 0.0
outer loop
vertex -4.79612498816914 3.89318594888082 9.02389274415327e-014
vertex -5.44584933006827 3.76341614888099 2.7500000000001
vertex -4.79612498816914 3.89318594888082 2.7500000000001
endloop
endfacet
facet normal -0.253481293229533 0.967340288617549 0.0
outer loop
vertex -6.08995358916229 3.60813696526264 2.7500000000001
vertex -5.44584933006827 3.76341614888099 9.02389274415327e-014
vertex -6.08995358916229 3.60813696526264 9.02389274415327e-014
endloop
endfacet
facet normal -0.215154571661027 0.976580007113273 0.0
outer loop
vertex -5.44584933006827 3.76341614888099 9.02389274415327e-014
vertex -6.08995358916229 3.60813696526264 2.7500000000001
vertex -5.44584933006827 3.76341614888099 2.7500000000001
endloop
endfacet
facet normal -0.291414026293184 0.956597023453238 0.0
outer loop
vertex -6.7274366277705 3.42758975001119 2.7500000000001
vertex -6.08995358916229 3.60813696526264 9.02389274415327e-014
vertex -6.7274366277705 3.42758975001119 9.02389274415327e-014
endloop
endfacet
facet normal -0.253481293229533 0.967340288617549 0.0
outer loop
vertex -6.08995358916229 3.60813696526264 9.02389274415327e-014
vertex -6.7274366277705 3.42758975001119 2.7500000000001
vertex -6.08995358916229 3.60813696526264 2.7500000000001
endloop
endfacet
facet normal -0.0 -1.0 -0.0
outer loop
vertex -4.7812998055379 -3.84299638657866 2.7500000000001
vertex -7.28129980553792 -3.84299638657866 9.02389274415327e-014
vertex -4.7812998055379 -3.84299638657866 9.02389274415327e-014
endloop
endfacet
facet normal -0.0 -1.0 -0.0
outer loop
vertex -7.28129980553792 -3.84299638657866 9.02389274415327e-014
vertex -4.7812998055379 -3.84299638657866 2.7500000000001
vertex -7.28129980553792 -3.84299638657866 2.7500000000001
endloop
endfacet
facet normal 1.0 0.0 0.0
outer loop
vertex -7.28129980553792 -3.84299638657866 9.02389274415327e-014
vertex -7.28129980553792 -5.54299638657866 2.7500000000001
vertex -7.28129980553792 -5.54299638657866 9.02389274415327e-014
endloop
endfacet
facet normal 1.0 0.0 0.0
outer loop
vertex -7.28129980553792 -5.54299638657866 2.7500000000001
vertex -7.28129980553792 -3.84299638657866 9.02389274415327e-014
vertex -7.28129980553792 -3.84299638657866 2.7500000000001
endloop
endfacet
facet normal 1.0 0.0 0.0
outer loop
vertex -4.7812998055379 -1.84299638657867 9.02389274415327e-014
vertex -4.7812998055379 -3.84299638657866 2.7500000000001
vertex -4.7812998055379 -3.84299638657866 9.02389274415327e-014
endloop
endfacet
facet normal 1.0 0.0 0.0
outer loop
vertex -4.7812998055379 -3.84299638657866 2.7500000000001
vertex -4.7812998055379 -1.84299638657867 9.02389274415327e-014
vertex -4.7812998055379 -1.84299638657867 2.7500000000001
endloop
endfacet
endsolid small ball sculpture
