solid small ball sculpture
facet normal -7.37154094058636e-033 -1.0 7.97607881645508e-017
outer loop
vertex 2.02062321307926 -9.90132720651731 2.00000000000012
vertex -0.979376786920693 -9.90132720651735 0.250000000000191
vertex 2.02062321307926 -9.90132720651735 0.250000000000157
endloop
endfacet
facet normal -7.37154094058636e-033 -1.0 7.97607881645508e-017
outer loop
vertex -0.979376786920693 -9.90132720651735 0.250000000000191
vertex 2.02062321307926 -9.90132720651731 2.00000000000012
vertex -0.979376786920693 -9.90132720651731 2.00000000000014
endloop
endfacet
facet normal 1.72803623475702e-032 -1.0 7.97607881645508e-017
outer loop
vertex -0.979376786920693 -12.4013272065173 0.250000000000191
vertex -20.4793767869208 -12.4013272065173 2.00000000000011
vertex -20.4793767869208 -12.4013272065173 0.250000000000157
endloop
endfacet
facet normal 1.72803623475702e-032 -1.0 7.97607881645508e-017
outer loop
vertex -20.4793767869208 -12.4013272065173 2.00000000000011
vertex -0.979376786920693 -12.4013272065173 0.250000000000191
vertex -0.979376786920693 -12.4013272065173 2.00000000000014
endloop
endfacet
facet normal -1.0 6.03843808499957e-033 -9.00423832771429e-017
outer loop
vertex -20.4793767869208 -8.90132720651722 2.00000000000011
vertex -20.4793767869208 -12.4013272065173 0.250000000000157
vertex -20.4793767869208 -12.4013272065173 2.00000000000011
endloop
endfacet
facet normal -1.0 6.03843808499957e-033 -9.00423832771429e-017
outer loop
vertex -20.4793767869208 -12.4013272065173 0.250000000000157
vertex -20.4793767869208 -8.90132720651722 2.00000000000011
vertex -20.4793767869208 -8.90132720651731 0.250000000000157
endloop
endfacet
facet normal 1.0 -6.03843808499957e-033 9.00423832771429e-017
outer loop
vertex -0.979376786920693 -9.90132720651735 0.250000000000191
vertex -0.979376786920693 -12.4013272065173 2.00000000000014
vertex -0.979376786920693 -12.4013272065173 0.250000000000191
endloop
endfacet
facet normal 1.0 -6.03843808499957e-033 9.00423832771429e-017
outer loop
vertex -0.979376786920693 -12.4013272065173 2.00000000000014
vertex -0.979376786920693 -9.90132720651735 0.250000000000191
vertex -0.979376786920693 -9.90132720651731 2.00000000000014
endloop
endfacet
facet normal -1.0 6.03843808499957e-033 -9.00423832771429e-017
outer loop
vertex 2.02062321307926 -9.90132720651731 2.00000000000012
vertex 2.02062321307926 -12.4013272065173 0.250000000000157
vertex 2.02062321307926 -12.4013272065173 2.00000000000012
endloop
endfacet
facet normal -1.0 6.03843808499957e-033 -9.00423832771429e-017
outer loop
vertex 2.02062321307926 -12.4013272065173 0.250000000000157
vertex 2.02062321307926 -9.90132720651731 2.00000000000012
vertex 2.02062321307926 -9.90132720651735 0.250000000000157
endloop
endfacet
facet normal -0.0328759404595237 0.999459440166984 -2.82877465051915e-014
outer loop
vertex -0.136264444112426 -8.36531302408787 2.00000000000014
vertex 0.707392100938911 -8.34584310051194 0.250000000000191
vertex -0.136264444112471 -8.36531302408791 0.250000000000191
endloop
endfacet
facet normal -0.0132655960771895 0.999912008109072 -3.02691220369114e-015
outer loop
vertex 0.707392100938911 -8.34584310051194 0.250000000000191
vertex -0.136264444112426 -8.36531302408787 2.00000000000014
vertex 0.707392100938911 -8.34584310051194 2.00000000000014
endloop
endfacet
facet normal 0.201127394938937 0.979565092786118 2.72449356655981e-014
outer loop
vertex 9.93079208601349 -9.22118766096877 0.250000000000191
vertex 10.7557242204206 -9.39901459243416 2.00000000000013
vertex 10.7557242204206 -9.39901459243411 0.250000000000169
endloop
endfacet
facet normal 0.220302500427822 0.975431601038868 2.29522966024382e-014
outer loop
vertex 10.7557242204206 -9.39901459243416 2.00000000000013
vertex 9.93079208601349 -9.22118766096877 0.250000000000191
vertex 9.93079208601327 -9.22118766096877 2.00000000000014
endloop
endfacet
facet normal -0.0132655960771895 0.999912008109072 -3.02691220369114e-015
outer loop
vertex 0.707392100938911 -8.34584310051194 2.00000000000014
vertex 1.55126823414603 -8.34292492724004 0.250000000000191
vertex 0.707392100938911 -8.34584310051194 0.250000000000191
endloop
endfacet
facet normal 0.00634985251424202 0.9999798394833 9.08851824284777e-015
outer loop
vertex 1.55126823414603 -8.34292492724004 0.250000000000191
vertex 0.707392100938911 -8.34584310051194 2.00000000000014
vertex 1.55126823414613 -8.34292492724009 2.00000000000014
endloop
endfacet
facet normal 0.0259628578701896 0.999662908190162 -4.1118395373117e-014
outer loop
vertex 2.39503925693154 -8.35655962709928 2.00000000000013
vertex 3.2383805111595 -8.38674195386018 0.250000000000169
vertex 2.39503925693136 -8.35655962709928 0.250000000000169
endloop
endfacet
facet normal 0.0455658734863484 0.998961336175443 -8.16193684172363e-014
outer loop
vertex 3.2383805111595 -8.38674195386018 0.250000000000169
vertex 2.39503925693154 -8.35655962709928 2.00000000000013
vertex 3.23838051115968 -8.38674195385991 2.00000000000013
endloop
endfacet
facet normal 0.406192428924172 0.913787563214056 -2.68397961757012e-014
outer loop
vertex 18.7528940700145 -12.0510024902591 0.250000000000191
vertex 19.5206232130792 -12.4013272065174 2.00000000000013
vertex 19.5206232130791 -12.4013272065173 0.250000000000169
endloop
endfacet
facet normal 0.415135122170459 0.909759765180082 -2.72609159542362e-014
outer loop
vertex 19.5206232130792 -12.4013272065174 2.00000000000013
vertex 18.7528940700145 -12.0510024902591 0.250000000000191
vertex 18.7528940700146 -12.051002490259 2.00000000000014
endloop
endfacet
facet normal 0.388190685487886 0.921579075120765 -1.55256581974314e-014
outer loop
vertex 17.9784411396524 -11.7158038885536 2.00000000000014
vertex 18.7528940700145 -12.0510024902591 0.250000000000191
vertex 17.9784411396524 -11.7158038885535 0.250000000000191
endloop
endfacet
facet normal 0.406192428924172 0.913787563214056 -2.68397961757012e-014
outer loop
vertex 18.7528940700145 -12.0510024902591 0.250000000000191
vertex 17.9784411396524 -11.7158038885536 2.00000000000014
vertex 18.7528940700146 -12.051002490259 2.00000000000014
endloop
endfacet
facet normal -3.2228188371976e-016 -1.0 -9.66845651159299e-015
outer loop
vertex 19.5206232130791 -12.4013272065173 0.250000000000169
vertex 2.02062321307926 -12.4013272065173 2.00000000000012
vertex 2.02062321307926 -12.4013272065173 0.250000000000157
endloop
endfacet
facet normal -3.2228188371976e-016 -1.0 -9.66845651159299e-015
outer loop
vertex 2.02062321307926 -12.4013272065173 2.00000000000012
vertex 19.5206232130791 -12.4013272065173 0.250000000000169
vertex 19.5206232130792 -12.4013272065174 2.00000000000013
endloop
endfacet
facet normal 0.104239591918644 0.994552214555191 -3.88685170351497e-014
outer loop
vertex 5.76258231061037 -8.57642675695773 2.00000000000012
vertex 6.60096308861972 -8.67261986999718 0.250000000000169
vertex 5.76258231061014 -8.57642675695777 0.250000000000157
endloop
endfacet
facet normal 0.123727303922729 0.992316257180145 -1.131784220515e-014
outer loop
vertex 6.60096308861972 -8.67261986999718 0.250000000000169
vertex 5.76258231061037 -8.57642675695773 2.00000000000012
vertex 6.60096308861981 -8.67261986999713 2.00000000000012
endloop
endfacet
facet normal 0.12372730392273 0.992316257180145 -1.13178422051479e-014
outer loop
vertex 6.60096308861981 -8.67261986999713 2.00000000000012
vertex 7.43729578297463 -8.78523899930425 0.250000000000191
vertex 6.60096308861972 -8.67261986999718 0.250000000000169
endloop
endfacet
facet normal 0.143167409319565 0.989698485857549 6.78505568389495e-015
outer loop
vertex 7.43729578297463 -8.78523899930425 0.250000000000191
vertex 6.60096308861981 -8.67261986999713 2.00000000000012
vertex 7.43729578297436 -8.78523899930429 2.00000000000014
endloop
endfacet
facet normal 0.258391068347892 0.966040400706945 2.8517374058737e-014
outer loop
vertex 12.3943323443157 -9.80303338330369 2.00000000000012
vertex 13.2073778458604 -10.029069788226 0.250000000000169
vertex 12.3943323443158 -9.80303338330369 0.250000000000169
endloop
endfacet
facet normal 0.277289875424533 0.960786305578429 2.51530639682941e-014
outer loop
vertex 13.2073778458604 -10.029069788226 0.250000000000169
vertex 12.3943323443157 -9.80303338330369 2.00000000000012
vertex 13.2073778458604 -10.0290697882261 2.00000000000012
endloop
endfacet
facet normal 0.277289875424533 0.960786305578429 2.51530639682939e-014
outer loop
vertex 13.2073778458604 -10.0290697882261 2.00000000000012
vertex 14.0158333107388 -10.2710102876056 0.250000000000169
vertex 13.2073778458604 -10.029069788226 0.250000000000169
endloop
endfacet
facet normal 0.296081989558081 0.955162528295226 -5.00540566779458e-015
outer loop
vertex 14.0158333107388 -10.2710102876056 0.250000000000169
vertex 13.2073778458604 -10.0290697882261 2.00000000000012
vertex 14.0158333107388 -10.2710102876055 2.00000000000012
endloop
endfacet
facet normal 0.0847117716024766 0.996405497652422 -2.9107987331203e-014
outer loop
vertex 4.92247603307378 -8.49669667245128 2.00000000000012
vertex 5.76258231061014 -8.57642675695777 0.250000000000157
vertex 4.92247603307364 -8.49669667245132 0.250000000000157
endloop
endfacet
facet normal 0.104239591918642 0.994552214555191 -3.88685170351502e-014
outer loop
vertex 5.76258231061014 -8.57642675695777 0.250000000000157
vertex 4.92247603307378 -8.49669667245128 2.00000000000012
vertex 5.76258231061037 -8.57642675695773 2.00000000000012
endloop
endfacet
facet normal 0.0651513567020885 0.997875393383301 -4.60955340957656e-014
outer loop
vertex 4.08096750405889 -8.43346029425602 0.250000000000169
vertex 4.92247603307378 -8.49669667245128 2.00000000000012
vertex 4.92247603307364 -8.49669667245132 0.250000000000157
endloop
endfacet
facet normal 0.0847117716024766 0.996405497652422 -2.9107987331203e-014
outer loop
vertex 4.92247603307378 -8.49669667245128 2.00000000000012
vertex 4.08096750405889 -8.43346029425602 0.250000000000169
vertex 4.08096750405862 -8.43346029425602 2.00000000000012
endloop
endfacet
facet normal 0.351746089740128 0.936095448313114 -3.99848786190043e-015
outer loop
vertex 16.4105583358238 -11.0912950571271 2.00000000000014
vertex 17.1975624085753 -11.3958603759093 0.250000000000191
vertex 16.4105583358235 -11.0912950571271 0.250000000000191
endloop
endfacet
facet normal 0.370039577756718 0.929015990655505 -8.90218751836889e-015
outer loop
vertex 17.1975624085753 -11.3958603759093 0.250000000000191
vertex 16.4105583358238 -11.0912950571271 2.00000000000014
vertex 17.1975624085754 -11.3958603759093 2.00000000000014
endloop
endfacet
facet normal 0.370039577756719 0.929015990655505 -8.90218751836844e-015
outer loop
vertex 17.1975624085754 -11.3958603759093 2.00000000000014
vertex 17.9784411396524 -11.7158038885535 0.250000000000191
vertex 17.1975624085753 -11.3958603759093 0.250000000000191
endloop
endfacet
facet normal 0.388190685487886 0.921579075120765 -1.55256581974309e-014
outer loop
vertex 17.9784411396524 -11.7158038885535 0.250000000000191
vertex 17.1975624085754 -11.3958603759093 2.00000000000014
vertex 17.9784411396524 -11.7158038885536 2.00000000000014
endloop
endfacet
facet normal 0.296081989558081 0.955162528295226 -5.00540566779458e-015
outer loop
vertex 14.0158333107388 -10.2710102876056 0.250000000000169
vertex 14.8193876691993 -10.5287617898932 2.00000000000011
vertex 14.8193876691992 -10.5287617898932 0.250000000000157
endloop
endfacet
facet normal 0.31476018009873 0.949171232720533 -1.32683833055326e-014
outer loop
vertex 14.8193876691993 -10.5287617898932 2.00000000000011
vertex 14.0158333107388 -10.2710102876056 0.250000000000169
vertex 14.0158333107388 -10.2710102876055 2.00000000000012
endloop
endfacet
facet normal 0.31476018009873 0.949171232720533 -1.32683833055326e-014
outer loop
vertex 14.8193876691993 -10.5287617898932 2.00000000000011
vertex 15.6177317372894 -10.8022251199343 0.250000000000191
vertex 14.8193876691992 -10.5287617898932 0.250000000000157
endloop
endfacet
facet normal 0.333317260231317 0.942814724127646 4.97351843031334e-016
outer loop
vertex 15.6177317372894 -10.8022251199343 0.250000000000191
vertex 14.8193876691993 -10.5287617898932 2.00000000000011
vertex 15.6177317372894 -10.8022251199343 2.00000000000014
endloop
endfacet
facet normal 0.333317260231317 0.942814724127646 4.97351843031453e-016
outer loop
vertex 15.6177317372894 -10.8022251199343 2.00000000000014
vertex 16.4105583358235 -11.0912950571271 0.250000000000191
vertex 15.6177317372894 -10.8022251199343 0.250000000000191
endloop
endfacet
facet normal 0.351746089740126 0.936095448313115 -3.99848786189891e-015
outer loop
vertex 16.4105583358235 -11.0912950571271 0.250000000000191
vertex 15.6177317372894 -10.8022251199343 2.00000000000014
vertex 16.4105583358238 -11.0912950571271 2.00000000000014
endloop
endfacet
facet normal 0.00634985251424202 0.9999798394833 9.08851824284777e-015
outer loop
vertex 1.55126823414603 -8.34292492724004 0.250000000000191
vertex 2.39503925693154 -8.35655962709928 2.00000000000013
vertex 2.39503925693136 -8.35655962709928 0.250000000000169
endloop
endfacet
facet normal 0.0259628578701896 0.999662908190162 -4.1118395373117e-014
outer loop
vertex 2.39503925693154 -8.35655962709928 2.00000000000013
vertex 1.55126823414603 -8.34292492724004 0.250000000000191
vertex 1.55126823414613 -8.34292492724009 2.00000000000014
endloop
endfacet
facet normal 3.34814911574175e-016 5.38498539377455e-016 -1.0
outer loop
vertex -0.136264444112471 -8.36531302408791 0.250000000000191
vertex -0.979376786920693 -9.90132720651735 0.250000000000191
vertex -0.979376786921099 -8.40132720651729 0.250000000000191
endloop
endfacet
facet normal 3.34814911574175e-016 5.38498539377455e-016 -1.0
outer loop
vertex -0.979376786920693 -9.90132720651735 0.250000000000191
vertex -0.136264444112471 -8.36531302408791 0.250000000000191
vertex 2.02062321307926 -9.90132720651735 0.250000000000157
endloop
endfacet
facet normal 3.34814911574175e-016 5.38498539377455e-016 -1.0
outer loop
vertex 2.02062321307926 -9.90132720651735 0.250000000000157
vertex -0.136264444112471 -8.36531302408791 0.250000000000191
vertex 0.707392100938911 -8.34584310051194 0.250000000000191
endloop
endfacet
facet normal 3.34814911574175e-016 5.38498539377455e-016 -1.0
outer loop
vertex 2.02062321307926 -9.90132720651735 0.250000000000157
vertex 0.707392100938911 -8.34584310051194 0.250000000000191
vertex 1.55126823414603 -8.34292492724004 0.250000000000191
endloop
endfacet
facet normal 3.34814911574175e-016 5.38498539377455e-016 -1.0
outer loop
vertex 2.02062321307926 -9.90132720651735 0.250000000000157
vertex 1.55126823414603 -8.34292492724004 0.250000000000191
vertex 2.39503925693136 -8.35655962709928 0.250000000000169
endloop
endfacet
facet normal 3.34814911574175e-016 5.38498539377455e-016 -1.0
outer loop
vertex 2.02062321307926 -9.90132720651735 0.250000000000157
vertex 2.39503925693136 -8.35655962709928 0.250000000000169
vertex 2.02062321307926 -12.4013272065173 0.250000000000157
endloop
endfacet
facet normal 3.34814911574175e-016 5.38498539377455e-016 -1.0
outer loop
vertex 2.02062321307926 -12.4013272065173 0.250000000000157
vertex 2.39503925693136 -8.35655962709928 0.250000000000169
vertex 19.5206232130791 -12.4013272065173 0.250000000000169
endloop
endfacet
facet normal 3.34814911574175e-016 5.38498539377455e-016 -1.0
outer loop
vertex 19.5206232130791 -12.4013272065173 0.250000000000169
vertex 2.39503925693136 -8.35655962709928 0.250000000000169
vertex 3.2383805111595 -8.38674195386018 0.250000000000169
endloop
endfacet
facet normal 3.34814911574175e-016 5.38498539377455e-016 -1.0
outer loop
vertex 19.5206232130791 -12.4013272065173 0.250000000000169
vertex 3.2383805111595 -8.38674195386018 0.250000000000169
vertex 4.08096750405889 -8.43346029425602 0.250000000000169
endloop
endfacet
facet normal 3.34814911574175e-016 5.38498539377455e-016 -1.0
outer loop
vertex 19.5206232130791 -12.4013272065173 0.250000000000169
vertex 4.08096750405889 -8.43346029425602 0.250000000000169
vertex 4.92247603307364 -8.49669667245132 0.250000000000157
endloop
endfacet
facet normal 3.34814911574175e-016 5.38498539377455e-016 -1.0
outer loop
vertex 19.5206232130791 -12.4013272065173 0.250000000000169
vertex 4.92247603307364 -8.49669667245132 0.250000000000157
vertex 5.76258231061014 -8.57642675695777 0.250000000000157
endloop
endfacet
facet normal 3.34814911574175e-016 5.38498539377455e-016 -1.0
outer loop
vertex 19.5206232130791 -12.4013272065173 0.250000000000169
vertex 5.76258231061014 -8.57642675695777 0.250000000000157
vertex 6.60096308861972 -8.67261986999718 0.250000000000169
endloop
endfacet
facet normal 3.34814911574175e-016 5.38498539377455e-016 -1.0
outer loop
vertex 19.5206232130791 -12.4013272065173 0.250000000000169
vertex 6.60096308861972 -8.67261986999718 0.250000000000169
vertex 7.43729578297463 -8.78523899930425 0.250000000000191
endloop
endfacet
facet normal 3.34814911574175e-016 5.38498539377455e-016 -1.0
outer loop
vertex 19.5206232130791 -12.4013272065173 0.250000000000169
vertex 7.43729578297463 -8.78523899930425 0.250000000000191
vertex 8.27125859758769 -8.91424081236919 0.250000000000191
endloop
endfacet
facet normal 3.34814911574175e-016 5.38498539377455e-016 -1.0
outer loop
vertex 19.5206232130791 -12.4013272065173 0.250000000000169
vertex 8.27125859758769 -8.91424081236919 0.250000000000191
vertex 9.10253064823406 -9.05957567310929 0.250000000000191
endloop
endfacet
facet normal 3.34814911574175e-016 5.38498539377455e-016 -1.0
outer loop
vertex 19.5206232130791 -12.4013272065173 0.250000000000169
vertex 9.10253064823406 -9.05957567310929 0.250000000000191
vertex 9.93079208601349 -9.22118766096877 0.250000000000191
endloop
endfacet
facet normal 3.34814911574175e-016 5.38498539377455e-016 -1.0
outer loop
vertex 19.5206232130791 -12.4013272065173 0.250000000000169
vertex 9.93079208601349 -9.22118766096877 0.250000000000191
vertex 10.7557242204206 -9.39901459243411 0.250000000000169
endloop
endfacet
facet normal 3.34814911574175e-016 5.38498539377455e-016 -1.0
outer loop
vertex 19.5206232130791 -12.4013272065173 0.250000000000169
vertex 10.7557242204206 -9.39901459243411 0.250000000000169
vertex 11.5770096419684 -9.59298804496169 0.250000000000169
endloop
endfacet
facet normal 3.34814911574175e-016 5.38498539377455e-016 -1.0
outer loop
vertex 19.5206232130791 -12.4013272065173 0.250000000000169
vertex 11.5770096419684 -9.59298804496169 0.250000000000169
vertex 12.3943323443158 -9.80303338330369 0.250000000000169
endloop
endfacet
facet normal 3.34814911574175e-016 5.38498539377455e-016 -1.0
outer loop
vertex 19.5206232130791 -12.4013272065173 0.250000000000169
vertex 12.3943323443158 -9.80303338330369 0.250000000000169
vertex 13.2073778458604 -10.029069788226 0.250000000000169
endloop
endfacet
facet normal 3.34814911574175e-016 5.38498539377455e-016 -1.0
outer loop
vertex 19.5206232130791 -12.4013272065173 0.250000000000169
vertex 13.2073778458604 -10.029069788226 0.250000000000169
vertex 14.0158333107388 -10.2710102876056 0.250000000000169
endloop
endfacet
facet normal 3.34814911574175e-016 5.38498539377455e-016 -1.0
outer loop
vertex 19.5206232130791 -12.4013272065173 0.250000000000169
vertex 14.0158333107388 -10.2710102876056 0.250000000000169
vertex 14.8193876691992 -10.5287617898932 0.250000000000157
endloop
endfacet
facet normal 3.34814911574175e-016 5.38498539377455e-016 -1.0
outer loop
vertex 19.5206232130791 -12.4013272065173 0.250000000000169
vertex 14.8193876691992 -10.5287617898932 0.250000000000157
vertex 15.6177317372894 -10.8022251199343 0.250000000000191
endloop
endfacet
facet normal 3.34814911574175e-016 5.38498539377455e-016 -1.0
outer loop
vertex 19.5206232130791 -12.4013272065173 0.250000000000169
vertex 15.6177317372894 -10.8022251199343 0.250000000000191
vertex 16.4105583358235 -11.0912950571271 0.250000000000191
endloop
endfacet
facet normal 3.34814911574175e-016 5.38498539377455e-016 -1.0
outer loop
vertex 19.5206232130791 -12.4013272065173 0.250000000000169
vertex 16.4105583358235 -11.0912950571271 0.250000000000191
vertex 17.1975624085753 -11.3958603759093 0.250000000000191
endloop
endfacet
facet normal 3.34814911574175e-016 5.38498539377455e-016 -1.0
outer loop
vertex 19.5206232130791 -12.4013272065173 0.250000000000169
vertex 17.1975624085753 -11.3958603759093 0.250000000000191
vertex 17.9784411396524 -11.7158038885535 0.250000000000191
endloop
endfacet
facet normal 3.34814911574175e-016 5.38498539377455e-016 -1.0
outer loop
vertex 19.5206232130791 -12.4013272065173 0.250000000000169
vertex 17.9784411396524 -11.7158038885535 0.250000000000191
vertex 18.7528940700145 -12.0510024902591 0.250000000000191
endloop
endfacet
facet normal 3.34814911574175e-016 5.38498539377455e-016 -1.0
outer loop
vertex -0.979376786921099 -8.40132720651729 0.250000000000191
vertex -20.4793767869208 -12.4013272065173 0.250000000000157
vertex -20.4793767869208 -8.90132720651731 0.250000000000157
endloop
endfacet
facet normal 3.34814911574175e-016 5.38498539377455e-016 -1.0
outer loop
vertex -20.4793767869208 -12.4013272065173 0.250000000000157
vertex -0.979376786921099 -8.40132720651729 0.250000000000191
vertex -0.979376786920693 -12.4013272065173 0.250000000000191
endloop
endfacet
facet normal 3.34814911574175e-016 5.38498539377455e-016 -1.0
outer loop
vertex -0.979376786920693 -12.4013272065173 0.250000000000191
vertex -0.979376786921099 -8.40132720651729 0.250000000000191
vertex -0.979376786920693 -9.90132720651735 0.250000000000191
endloop
endfacet
facet normal -0.0256326007925517 0.999671430909481 -4.47695298213786e-014
outer loop
vertex -20.4793767869208 -8.90132720651722 2.00000000000011
vertex -0.979376786921099 -8.40132720651729 0.250000000000191
vertex -20.4793767869208 -8.90132720651731 0.250000000000157
endloop
endfacet
facet normal -0.0256326007925517 0.999671430909481 -4.47695298213786e-014
outer loop
vertex -0.979376786921099 -8.40132720651729 0.250000000000191
vertex -20.4793767869208 -8.90132720651722 2.00000000000011
vertex -0.979376786921054 -8.40132720651724 2.00000000000014
endloop
endfacet
facet normal -0.0426768404535394 0.999088928618921 -3.75388528631222e-014
outer loop
vertex -0.979376786921054 -8.40132720651724 2.00000000000014
vertex -0.136264444112471 -8.36531302408791 0.250000000000191
vertex -0.979376786921099 -8.40132720651729 0.250000000000191
endloop
endfacet
facet normal -0.032875940459524 0.999459440166984 -2.82877465051919e-014
outer loop
vertex -0.136264444112471 -8.36531302408791 0.250000000000191
vertex -0.979376786921054 -8.40132720651724 2.00000000000014
vertex -0.136264444112426 -8.36531302408787 2.00000000000014
endloop
endfacet
facet normal 0.162552428131602 0.986699907828373 -1.57220570527426e-014
outer loop
vertex 8.27125859758773 -8.9142408123691 2.00000000000014
vertex 9.10253064823406 -9.05957567310929 0.250000000000191
vertex 8.27125859758769 -8.91424081236919 0.250000000000191
endloop
endfacet
facet normal 0.181874901576844 0.983321676856772 -5.3022292800707e-015
outer loop
vertex 9.10253064823406 -9.05957567310929 0.250000000000191
vertex 8.27125859758773 -8.9142408123691 2.00000000000014
vertex 9.10253064823401 -9.05957567310925 2.00000000000014
endloop
endfacet
facet normal 0.143167409319564 0.989698485857549 6.78505568389607e-015
outer loop
vertex 7.43729578297436 -8.78523899930429 2.00000000000014
vertex 8.27125859758769 -8.91424081236919 0.250000000000191
vertex 7.43729578297463 -8.78523899930425 0.250000000000191
endloop
endfacet
facet normal 0.162552428131602 0.986699907828373 -1.57220570527423e-014
outer loop
vertex 8.27125859758769 -8.91424081236919 0.250000000000191
vertex 7.43729578297436 -8.78523899930429 2.00000000000014
vertex 8.27125859758773 -8.9142408123691 2.00000000000014
endloop
endfacet
facet normal 0.239392840030263 0.970922792060339 1.58148982004287e-014
outer loop
vertex 11.5770096419683 -9.59298804496165 2.00000000000013
vertex 12.3943323443158 -9.80303338330369 0.250000000000169
vertex 11.5770096419684 -9.59298804496169 0.250000000000169
endloop
endfacet
facet normal 0.258391068347892 0.966040400706945 2.85173740587376e-014
outer loop
vertex 12.3943323443158 -9.80303338330369 0.250000000000169
vertex 11.5770096419683 -9.59298804496165 2.00000000000013
vertex 12.3943323443157 -9.80303338330369 2.00000000000012
endloop
endfacet
facet normal -3.53332404563545e-016 -7.74324093388747e-016 1.0
outer loop
vertex 19.5206232130792 -12.4013272065174 2.00000000000013
vertex 2.02062321307926 -9.90132720651731 2.00000000000012
vertex 2.02062321307926 -12.4013272065173 2.00000000000012
endloop
endfacet
facet normal -3.53332404563545e-016 -7.74324093388747e-016 1.0
outer loop
vertex 2.02062321307926 -9.90132720651731 2.00000000000012
vertex 19.5206232130792 -12.4013272065174 2.00000000000013
vertex 2.39503925693154 -8.35655962709928 2.00000000000013
endloop
endfacet
facet normal -3.53332404563545e-016 -7.74324093388747e-016 1.0
outer loop
vertex 2.39503925693154 -8.35655962709928 2.00000000000013
vertex 19.5206232130792 -12.4013272065174 2.00000000000013
vertex 3.23838051115968 -8.38674195385991 2.00000000000013
endloop
endfacet
facet normal -3.53332404563545e-016 -7.74324093388747e-016 1.0
outer loop
vertex 3.23838051115968 -8.38674195385991 2.00000000000013
vertex 19.5206232130792 -12.4013272065174 2.00000000000013
vertex 4.08096750405862 -8.43346029425602 2.00000000000012
endloop
endfacet
facet normal -3.53332404563545e-016 -7.74324093388747e-016 1.0
outer loop
vertex 4.08096750405862 -8.43346029425602 2.00000000000012
vertex 19.5206232130792 -12.4013272065174 2.00000000000013
vertex 4.92247603307378 -8.49669667245128 2.00000000000012
endloop
endfacet
facet normal -3.53332404563545e-016 -7.74324093388747e-016 1.0
outer loop
vertex 4.92247603307378 -8.49669667245128 2.00000000000012
vertex 19.5206232130792 -12.4013272065174 2.00000000000013
vertex 5.76258231061037 -8.57642675695773 2.00000000000012
endloop
endfacet
facet normal -3.53332404563545e-016 -7.74324093388747e-016 1.0
outer loop
vertex 5.76258231061037 -8.57642675695773 2.00000000000012
vertex 19.5206232130792 -12.4013272065174 2.00000000000013
vertex 6.60096308861981 -8.67261986999713 2.00000000000012
endloop
endfacet
facet normal -3.53332404563545e-016 -7.74324093388747e-016 1.0
outer loop
vertex 6.60096308861981 -8.67261986999713 2.00000000000012
vertex 19.5206232130792 -12.4013272065174 2.00000000000013
vertex 7.43729578297436 -8.78523899930429 2.00000000000014
endloop
endfacet
facet normal -3.53332404563545e-016 -7.74324093388747e-016 1.0
outer loop
vertex 7.43729578297436 -8.78523899930429 2.00000000000014
vertex 19.5206232130792 -12.4013272065174 2.00000000000013
vertex 8.27125859758773 -8.9142408123691 2.00000000000014
endloop
endfacet
facet normal -3.53332404563545e-016 -7.74324093388747e-016 1.0
outer loop
vertex 8.27125859758773 -8.9142408123691 2.00000000000014
vertex 19.5206232130792 -12.4013272065174 2.00000000000013
vertex 9.10253064823401 -9.05957567310925 2.00000000000014
endloop
endfacet
facet normal -3.53332404563545e-016 -7.74324093388747e-016 1.0
outer loop
vertex 9.10253064823401 -9.05957567310925 2.00000000000014
vertex 19.5206232130792 -12.4013272065174 2.00000000000013
vertex 9.93079208601327 -9.22118766096877 2.00000000000014
endloop
endfacet
facet normal -3.53332404563545e-016 -7.74324093388747e-016 1.0
outer loop
vertex 9.93079208601327 -9.22118766096877 2.00000000000014
vertex 19.5206232130792 -12.4013272065174 2.00000000000013
vertex 10.7557242204206 -9.39901459243416 2.00000000000013
endloop
endfacet
facet normal -3.53332404563545e-016 -7.74324093388747e-016 1.0
outer loop
vertex 10.7557242204206 -9.39901459243416 2.00000000000013
vertex 19.5206232130792 -12.4013272065174 2.00000000000013
vertex 11.5770096419683 -9.59298804496165 2.00000000000013
endloop
endfacet
facet normal -3.53332404563545e-016 -7.74324093388747e-016 1.0
outer loop
vertex 11.5770096419683 -9.59298804496165 2.00000000000013
vertex 19.5206232130792 -12.4013272065174 2.00000000000013
vertex 12.3943323443157 -9.80303338330369 2.00000000000012
endloop
endfacet
facet normal -3.53332404563545e-016 -7.74324093388747e-016 1.0
outer loop
vertex 12.3943323443157 -9.80303338330369 2.00000000000012
vertex 19.5206232130792 -12.4013272065174 2.00000000000013
vertex 13.2073778458604 -10.0290697882261 2.00000000000012
endloop
endfacet
facet normal -3.53332404563545e-016 -7.74324093388747e-016 1.0
outer loop
vertex 13.2073778458604 -10.0290697882261 2.00000000000012
vertex 19.5206232130792 -12.4013272065174 2.00000000000013
vertex 14.0158333107388 -10.2710102876055 2.00000000000012
endloop
endfacet
facet normal -3.53332404563545e-016 -7.74324093388747e-016 1.0
outer loop
vertex 14.0158333107388 -10.2710102876055 2.00000000000012
vertex 19.5206232130792 -12.4013272065174 2.00000000000013
vertex 14.8193876691993 -10.5287617898932 2.00000000000011
endloop
endfacet
facet normal -3.53332404563545e-016 -7.74324093388747e-016 1.0
outer loop
vertex 14.8193876691993 -10.5287617898932 2.00000000000011
vertex 19.5206232130792 -12.4013272065174 2.00000000000013
vertex 15.6177317372894 -10.8022251199343 2.00000000000014
endloop
endfacet
facet normal -3.53332404563545e-016 -7.74324093388747e-016 1.0
outer loop
vertex 15.6177317372894 -10.8022251199343 2.00000000000014
vertex 19.5206232130792 -12.4013272065174 2.00000000000013
vertex 16.4105583358238 -11.0912950571271 2.00000000000014
endloop
endfacet
facet normal -3.53332404563545e-016 -7.74324093388747e-016 1.0
outer loop
vertex 16.4105583358238 -11.0912950571271 2.00000000000014
vertex 19.5206232130792 -12.4013272065174 2.00000000000013
vertex 17.1975624085754 -11.3958603759093 2.00000000000014
endloop
endfacet
facet normal -3.53332404563545e-016 -7.74324093388747e-016 1.0
outer loop
vertex 17.1975624085754 -11.3958603759093 2.00000000000014
vertex 19.5206232130792 -12.4013272065174 2.00000000000013
vertex 17.9784411396524 -11.7158038885536 2.00000000000014
endloop
endfacet
facet normal -3.53332404563545e-016 -7.74324093388747e-016 1.0
outer loop
vertex 17.9784411396524 -11.7158038885536 2.00000000000014
vertex 19.5206232130792 -12.4013272065174 2.00000000000013
vertex 18.7528940700146 -12.051002490259 2.00000000000014
endloop
endfacet
facet normal -3.53332404563545e-016 -7.74324093388747e-016 1.0
outer loop
vertex -0.979376786920693 -12.4013272065173 2.00000000000014
vertex -20.4793767869208 -8.90132720651722 2.00000000000011
vertex -20.4793767869208 -12.4013272065173 2.00000000000011
endloop
endfacet
facet normal -3.53332404563545e-016 -7.74324093388747e-016 1.0
outer loop
vertex -20.4793767869208 -8.90132720651722 2.00000000000011
vertex -0.979376786920693 -12.4013272065173 2.00000000000014
vertex -0.979376786921054 -8.40132720651724 2.00000000000014
endloop
endfacet
facet normal -3.53332404563545e-016 -7.74324093388747e-016 1.0
outer loop
vertex -0.979376786921054 -8.40132720651724 2.00000000000014
vertex -0.979376786920693 -12.4013272065173 2.00000000000014
vertex -0.979376786920693 -9.90132720651731 2.00000000000014
endloop
endfacet
facet normal -3.53332404563545e-016 -7.74324093388747e-016 1.0
outer loop
vertex -0.979376786921054 -8.40132720651724 2.00000000000014
vertex -0.979376786920693 -9.90132720651731 2.00000000000014
vertex -0.136264444112426 -8.36531302408787 2.00000000000014
endloop
endfacet
facet normal -3.53332404563545e-016 -7.74324093388747e-016 1.0
outer loop
vertex -0.136264444112426 -8.36531302408787 2.00000000000014
vertex -0.979376786920693 -9.90132720651731 2.00000000000014
vertex 2.02062321307926 -9.90132720651731 2.00000000000012
endloop
endfacet
facet normal -3.53332404563545e-016 -7.74324093388747e-016 1.0
outer loop
vertex -0.136264444112426 -8.36531302408787 2.00000000000014
vertex 2.02062321307926 -9.90132720651731 2.00000000000012
vertex 0.707392100938911 -8.34584310051194 2.00000000000014
endloop
endfacet
facet normal -3.53332404563545e-016 -7.74324093388747e-016 1.0
outer loop
vertex 0.707392100938911 -8.34584310051194 2.00000000000014
vertex 2.02062321307926 -9.90132720651731 2.00000000000012
vertex 1.55126823414613 -8.34292492724009 2.00000000000014
endloop
endfacet
facet normal -3.53332404563545e-016 -7.74324093388747e-016 1.0
outer loop
vertex 1.55126823414613 -8.34292492724009 2.00000000000014
vertex 2.02062321307926 -9.90132720651731 2.00000000000012
vertex 2.39503925693154 -8.35655962709928 2.00000000000013
endloop
endfacet
facet normal 0.220302500427822 0.975431601038868 2.29522966024382e-014
outer loop
vertex 10.7557242204206 -9.39901459243416 2.00000000000013
vertex 11.5770096419684 -9.59298804496169 0.250000000000169
vertex 10.7557242204206 -9.39901459243411 0.250000000000169
endloop
endfacet
facet normal 0.239392840030264 0.970922792060339 1.5814898200429e-014
outer loop
vertex 11.5770096419684 -9.59298804496169 0.250000000000169
vertex 10.7557242204206 -9.39901459243416 2.00000000000013
vertex 11.5770096419683 -9.59298804496165 2.00000000000013
endloop
endfacet
facet normal 0.0455658734863496 0.998961336175443 -8.16193684172356e-014
outer loop
vertex 3.23838051115968 -8.38674195385991 2.00000000000013
vertex 4.08096750405889 -8.43346029425602 0.250000000000169
vertex 3.2383805111595 -8.38674195386018 0.250000000000169
endloop
endfacet
facet normal 0.0651513567020885 0.997875393383301 -4.60955340957656e-014
outer loop
vertex 4.08096750405889 -8.43346029425602 0.250000000000169
vertex 3.23838051115968 -8.38674195385991 2.00000000000013
vertex 4.08096750405862 -8.43346029425602 2.00000000000012
endloop
endfacet
facet normal 0.181874901576844 0.983321676856772 -5.30222928007171e-015
outer loop
vertex 9.10253064823401 -9.05957567310925 2.00000000000014
vertex 9.93079208601349 -9.22118766096877 0.250000000000191
vertex 9.10253064823406 -9.05957567310929 0.250000000000191
endloop
endfacet
facet normal 0.201127394938937 0.979565092786118 2.72449356655981e-014
outer loop
vertex 9.93079208601349 -9.22118766096877 0.250000000000191
vertex 9.10253064823401 -9.05957567310925 2.00000000000014
vertex 9.93079208601327 -9.22118766096877 2.00000000000014
endloop
endfacet
endsolid small ball sculpture
